<?xml version="1.0" standalone="no"?><!DOCTYPE svg PUBLIC "-//W3C//DTD SVG 1.1//EN" "http://www.w3.org/Graphics/SVG/1.1/DTD/svg11.dtd"><svg t="1607430028409" class="icon" viewBox="0 0 1024 1024" version="1.1" xmlns="http://www.w3.org/2000/svg" p-id="3167" width="64" height="64" xmlns:xlink="http://www.w3.org/1999/xlink"><defs><style type="text/css"></style></defs><path d="M561 512.7l388.1-388.1c13.6-13.6 13.6-35.6 0-49.2-13.6-13.6-35.6-13.6-49.2 0l-388.1 388L123.7 75.3c-13.6-13.6-35.6-13.6-49.2 0-13.6 13.6-13.6 35.6 0 49.2l388.1 388.1L74.4 900.8c-13.6 13.6-13.6 35.6 0 49.2 6.8 6.8 15.7 10.2 24.6 10.2s17.8-3.4 24.6-10.2l388.1-388.1L899.9 950c6.8 6.8 15.7 10.2 24.6 10.2s17.8-3.4 24.6-10.2c13.6-13.6 13.6-35.6 0-49.2L561 512.7z" p-id="3168" fill="#ffffff"></path></svg>